<svg fill="none" xmlns="http://www.w3.org/2000/svg" viewBox="0 0 28 28"><path d="M14 26.667v-1.334 1.334Zm0-24A1.333 1.333 0 1 1 14 0v2.667ZM0 14a1.333 1.333 0 1 1 2.667 0H0Zm14 11.334c6.26 0 11.333-5.075 11.333-11.334H28c0 7.732-6.268 14-14 14v-2.666ZM25.333 14C25.333 7.74 20.26 2.667 14 2.667V0c7.732 0 14 6.268 14 14h-2.667ZM14 28a13.99 13.99 0 0 1-5.357-1.066l1.02-2.463c1.375.57 2.849.863 4.337.863V28Zm-5.357-1.066A14 14 0 0 1 4.1 23.9l1.885-1.886a11.334 11.334 0 0 0 3.677 2.457l-1.02 2.463ZM4.1 23.9a14 14 0 0 1-3.035-4.542l2.463-1.02a11.333 11.333 0 0 0 2.457 3.676L4.101 23.9Zm-3.035-4.542A14 14 0 0 1 0 14h2.667c0 1.489.293 2.962.862 4.337l-2.463 1.02Z" fill="currentColor"/></svg>