<svg fill="none" xmlns="http://www.w3.org/2000/svg" viewBox="0 0 20 27"><path d="m15 5.042-1.775 1.716-1.987-1.922v13.497H8.762V4.837L6.775 6.758 5 5.042l5-4.834 5 4.834Zm5 6.042v13.291c0 1.33-1.125 2.417-2.5 2.417h-15a2.544 2.544 0 0 1-1.768-.708A2.376 2.376 0 0 1 0 24.375V11.084c0-1.342 1.113-2.417 2.5-2.417h3.75v2.417H2.5v13.291h15V11.084h-3.75V8.667h3.75c.663 0 1.299.254 1.768.708.469.453.732 1.068.732 1.709Z" fill="url(#a)"/><defs><linearGradient id="a" x1="20" y1="-19.574" x2="-11.948" y2="-14.039" gradientUnits="userSpaceOnUse"><stop stop-color="#F66651"/><stop offset="1" stop-color="#6448E7"/></linearGradient></defs></svg>