<svg fill="none" xmlns="http://www.w3.org/2000/svg" viewBox="0 0 34 22"><path d="M6.96 4.611c5.545-5.464 14.535-5.464 20.08 0l.667.658a.692.692 0 0 1 0 .989l-2.283 2.25a.359.359 0 0 1-.502 0l-.918-.905c-3.868-3.812-10.14-3.812-14.008 0l-.983.969a.359.359 0 0 1-.502 0l-2.283-2.25a.692.692 0 0 1 0-.99l.733-.72Zm24.8 4.652 2.032 2.002a.692.692 0 0 1 0 .99l-9.16 9.027a.717.717 0 0 1-1.005 0l-6.501-6.407a.18.18 0 0 0-.251 0l-6.502 6.407a.717.717 0 0 1-1.004 0L.208 12.255a.692.692 0 0 1 0-.99L2.24 9.263a.717.717 0 0 1 1.004 0l6.501 6.407a.18.18 0 0 0 .251 0l6.502-6.407a.717.717 0 0 1 1.004 0l6.502 6.407a.18.18 0 0 0 .25 0l6.502-6.407a.717.717 0 0 1 1.004 0Z" fill="currentColor"/></svg>