<svg fill="none" xmlns="http://www.w3.org/2000/svg" viewBox="0 0 38 38"><path d="M20.973 9.133c.446-1.896 4.862-6.64 6.969-5.057 2.453 1.9-.408 5.716-1.416 7.192 0 0-.201-2.042-1.81-3.894a81.232 81.232 0 0 0-3.162 2.154.374.374 0 0 1-.559-.173.393.393 0 0 1-.022-.222Zm1.8 2.863a.358.358 0 0 0-.202.273.382.382 0 0 0 .048.266c.048.08.123.138.211.164a80.06 80.06 0 0 1 3.624 1.183c-.422 2.433-1.862 3.864-1.862 3.864 1.761-.117 6.47-.21 6.407-3.351-.09-2.663-6.489-3.225-8.226-2.4Zm-1.08 3.214a.364.364 0 0 0-.417.064.377.377 0 0 0-.087.42c.317.801.85 2.165 1.349 3.625-2.136 1.178-4.133.919-4.133.919 1.185 1.329 4.19 5.022 6.561 3.02 1.992-1.73-1.555-7.178-3.273-8.047Zm-3.144 1.144a.369.369 0 0 0-.216-.264.359.359 0 0 0-.47.161 80.286 80.286 0 0 1-1.949 3.327c-2.232-.967-3.278-2.721-3.278-2.721-.283 1.774-1.253 6.469 1.766 7.114 2.568.508 4.55-5.712 4.147-7.617Zm-2.832-1.798a.388.388 0 0 0-.088-.554.364.364 0 0 0-.262-.057c-.84.137-2.266.357-3.773.523-.648-2.384.048-4.304.048-4.304-1.54.874-5.75 3.029-4.367 5.828 1.209 2.365 7.223.069 8.442-1.436Zm-.389-3.376a.355.355 0 0 0 .303-.152.386.386 0 0 0-.048-.508 72.578 72.578 0 0 1-2.75-2.677c1.43-1.998 3.34-2.638 3.34-2.638-1.632-.684-5.908-2.702-7.2.151-1.065 2.433 4.44 5.794 6.355 5.824Zm2.664-2.262a.371.371 0 0 0 .246-.106.384.384 0 0 0 .114-.246c.053-.865.168-2.326.346-3.86 2.428-.107 4.108 1.016 4.108 1.016-.49-1.724-1.603-6.385-4.598-5.643-2.534.67-1.69 7.148-.523 8.697a.376.376 0 0 0 .307.142Z" fill="url(#a)"/><path d="m6.441 29.496-.968 4.144-1.168-4.144h-.952L2.21 33.64l-.992-4.144H.145L1.73 35h.92l1.184-4.216L5.033 35h.92l1.56-5.504H6.441Zm4.014 5.6c1.648 0 2.696-1.288 2.696-2.848 0-1.568-1.032-2.848-2.696-2.848-1.664 0-2.696 1.28-2.696 2.848 0 1.56 1.032 2.848 2.696 2.848Zm0-.8c-1.08 0-1.688-.88-1.688-2.048 0-1.168.608-2.048 1.688-2.048 1.064 0 1.688.88 1.688 2.048 0 1.168-.608 2.048-1.688 2.048Zm6.742.704h1.144l-1.56-2.32c.616-.168 1.232-.6 1.232-1.584 0-1.032-.736-1.6-1.856-1.6h-2.168V35h.984v-2.256h.736L17.197 35Zm-2.224-4.64h1.208c.584 0 .872.296.872.76s-.304.76-.872.76h-1.208v-1.52ZM18.979 35h3.688v-.848h-2.704v-4.656h-.984V35Zm4.49 0h2.104c1.632 0 2.632-1.168 2.632-2.768 0-1.656-.976-2.736-2.736-2.736h-2V35Zm.992-.864V30.36h.712c1.336 0 2.024.504 2.024 1.872 0 1.088-.544 1.904-1.672 1.904h-1.064ZM30.81 35h.992v-5.504h-.992V35Zm2.03 0h2.104c1.632 0 2.632-1.168 2.632-2.768 0-1.656-.976-2.736-2.736-2.736h-2V35Zm.992-.864V30.36h.712c1.336 0 2.024.504 2.024 1.872 0 1.088-.544 1.904-1.672 1.904H33.83Z" fill="url(#b)"/><defs><linearGradient id="a" x1="7" y1="12" x2="31" y2="12" gradientUnits="userSpaceOnUse"><stop stop-color="#FF6848"/><stop offset="1" stop-color="#4940E0"/></linearGradient><linearGradient id="b" x1="0" y1="33" x2="38" y2="33" gradientUnits="userSpaceOnUse"><stop stop-color="#FF6848"/><stop offset="1" stop-color="#4940E0"/></linearGradient></defs></svg>