<svg height="29px" fill="none" xmlns="http://www.w3.org/2000/svg" viewBox="0 0 148 29"><g clip-path="url(#a)" fill="currentColor"><path d="M23.102 10.82c0 3.11-.86 5.596-2.582 7.462-1.777 1.917-4.238 2.88-7.383 2.88-.774 0-1.943-.031-3.509-.089a105.873 105.873 0 0 0-3.53-.088c-.433 0-.652.271-.652.813 0 .702.045 1.755.132 3.157.087 1.403.132 2.456.132 3.158 0 .223-.129.338-.386.338-.284 0-.715-.03-1.29-.088a13.224 13.224 0 0 0-1.292-.088c-.243 0-.604.02-1.08.061-.475.04-.825.061-1.058.061-.34 0-.507-.203-.507-.616 0-1.444.066-3.618.195-6.531.128-2.91.194-5.095.194-6.552.003-4.136-.153-8.57-.465-13.306L0 1.094C-.014.803.163.657.528.657c.732 0 1.832.007 3.304.02 1.472.014 2.579.02 3.325.02.639 0 1.593-.026 2.867-.077a72.372 72.372 0 0 1 2.867-.078c2.995 0 5.456.993 7.383 2.978 1.884 1.944 2.825 4.38 2.825 7.303l.003-.004Zm-5.126.298c0-1.985-.549-3.574-1.649-4.763-1.138-1.243-2.71-1.867-4.717-1.867-.624 0-1.735.055-3.335.16-1.83.105-2.774.213-2.826.318-.093.16-.142 2.436-.142 6.83 0 .555.017 1.388.052 2.5.035 1.11.052 1.944.052 2.499 0 .119.15.213.448.278.746.145 2.811.217 6.203.217 1.898 0 3.377-.576 4.432-1.728.989-1.098 1.485-2.581 1.485-4.444h-.003ZM42.196 17.727c0 .979-.434 1.632-1.302 1.964-.583.214-4.78.603-12.589 1.172.177 1.166.833 2.158 1.972 2.978 1.083.782 2.249 1.172 3.498 1.172 2.142 0 4.11-.674 5.898-2.026.215-.172.433-.345.652-.515.108 0 .18.014.215.041.035.027.288.488.764 1.379.475.894.711 1.372.711 1.44 0 .077-.107.23-.326.457-1.992 2.063-4.55 3.096-7.667 3.096s-5.654-.915-7.525-2.75c-1.87-1.833-2.808-4.28-2.808-7.335 0-2.727.895-5.101 2.683-7.127 1.885-2.103 4.196-3.157 6.935-3.157 2.547 0 4.679.915 6.386 2.74 1.666 1.772 2.503 3.93 2.503 6.47Zm-4.842-1.21c0-1.097-.444-2.07-1.333-2.916-.888-.847-1.888-1.27-2.999-1.27-1.246 0-2.356.49-3.325 1.47-.968.979-1.454 2.076-1.454 3.295 0 .278.243.417.732.417 2.006 0 4.405-.2 7.199-.596.788-.105 1.18-.237 1.18-.396v-.004ZM56.718 24.732c0 .291-.027.688-.08 1.192-.069.623-.107 1.027-.12 1.21-.015.237-.036.382-.063.436-.056.092-.184.187-.386.278-1.11.515-2.86.776-5.248.776-3.172 0-4.758-1.402-4.758-4.207 0-1.125.027-2.815.08-5.071.055-2.256.08-3.947.08-5.071 0-.542-.278-.834-.834-.874-.503 0-.996-.007-1.485-.02-.285-.065-.427-.61-.427-1.627 0-.382.028-.785.08-1.209.041-.318.256-.508.652-.576.34 0 .67-.006.996-.02.625-.027.938-.298.938-.813 0-.515-.018-1.335-.053-2.422a83.38 83.38 0 0 1-.052-2.442c0-.966.191-1.45.57-1.45.121 0 1.395.206 3.825.616.312.04.468.187.468.437 0 .583-.045 1.457-.132 2.619-.087 1.165-.132 2.039-.132 2.618 0 .383.184.576.549.576h4.88c.229 0 .347.078.347.237 0 .16-.024.413-.073.766a6.352 6.352 0 0 0-.073.782c0 .2.007.502.021.915.014.41.02.715.02.915 0 .25-.19.376-.568.376-.542 0-1.364-.038-2.461-.109-1.097-.071-1.92-.108-2.461-.108-.108 0-.191.376-.243 1.131-.07.938-.1 2.256-.1 3.95V21.5c0 1.138.107 1.931.325 2.382.327.687.997 1.033 2.014 1.033.42 0 1.037-.088 1.85-.268.812-.18 1.416-.267 1.808-.267.163 0 .243.118.243.355l.003-.003ZM92.868 8.848a14.052 14.052 0 0 0-2.353-3.208c-1.09-1.135-2.288-2.039-3.593-2.71-.1-.054-.201-.101-.302-.152-.007-.004-.017-.007-.024-.014a12.395 12.395 0 0 0-1.375-.562c-1.447-.501-3.012-.752-4.692-.752-1.68 0-3.332.268-4.814.8-.417.145-.823.314-1.215.504 0 0-.004.004-.007.004-.122.057-.243.118-.361.179-.049.024-.094.05-.139.075a13.638 13.638 0 0 0-3.43 2.628 14.33 14.33 0 0 0-2.346 3.178 4.862 4.862 0 0 0-.097.19c-.975 1.886-1.461 3.96-1.461 6.229 0 3.743 1.288 6.948 3.863 9.614C73.195 27.614 76.527 29 80.53 29s7.32-1.393 10.006-4.17c2.576-2.68 3.864-5.878 3.864-9.594 0-2.334-.51-4.465-1.531-6.389ZM87.037 21.64c-1.736 1.951-3.919 2.93-6.55 2.93-2.63 0-4.745-.979-6.466-2.93-1.628-1.826-2.44-3.963-2.44-6.402 0-2.44.763-4.468 2.3-6.26.046-.054.091-.109.14-.163 1.065-1.209 2.297-2.046 3.696-2.503a8.676 8.676 0 0 1 2.77-.427c2.617 0 4.793.966 6.529 2.89 1.655 1.819 2.482 3.953 2.482 6.402 0 2.449-.823 4.637-2.461 6.463ZM107.047 9.33c-.83 0-1.507.08-2.034.24a7.45 7.45 0 0 0-1.871.792c-.556.346-1.114.688-1.67 1.034a.207.207 0 0 1-.1.037c-.177 0-.299-.39-.368-1.169-.066-.782-.209-1.172-.427-1.172.111 0-.569.132-2.03.396-.91.105-1.615.187-2.118.237-.177.068-.264.18-.264.34 0 .053.014.131.042.236.621 1.985.934 4.614.934 7.883 0 1.084-.018 2.703-.049 4.861-.035 2.158-.052 3.77-.052 4.844 0 .329.156.495.468.495.42 0 1.056.006 1.91.02.857.014 1.492.02 1.912.02.312 0 .469-.18.469-.535 0-.742-.032-1.866-.091-3.374a90.558 90.558 0 0 1-.093-3.374v-2.185c0-1.798.142-2.984.427-3.553.475-.939 1.565-1.41 3.276-1.41.299 0 .736.031 1.312.092.576.058 1.007.088 1.291.088.229 0 .365-.152.406-.457.202-1.19.306-2.514.306-3.97 0-.278-.531-.417-1.586-.417ZM147.535 24.434c-2.482 0-5.98.06-10.496.18 2.874-3.11 5.022-5.451 6.449-7.026 2.207-2.422 3.38-3.726 3.516-3.913.163-.25.246-1.375.246-3.374 0-.237-.17-.376-.51-.416-.475-.051-2.568-.078-6.282-.078-.76 0-1.892-.034-3.398-.098a82.567 82.567 0 0 0-3.398-.102c-.379 0-.57.081-.57.24 0 .37-.083.935-.253 1.698-.17.758-.253 1.33-.253 1.714 0 .277.107.416.326.416h8.969c-2.416 2.781-4.28 4.838-5.595 6.176-2.604 2.737-4.051 4.237-4.342 4.495-.292.257-.438.48-.438.664 0 .105-.007.267-.017.487a8.407 8.407 0 0 0-.021.505c0 .847.094 1.589.285 2.222.076.227.243.343.496.356 0-.013.878-.081 2.634-.196 1.6-.105 3.058-.16 4.374-.16 1.694 0 2.995.014 3.905.041.35.014.982.054 1.891.119a29.74 29.74 0 0 0 1.913.08c.187 0 .309-.233.364-.694.028-.226.149-.81.365-1.747.204-.874.305-1.342.305-1.41 0-.118-.156-.18-.465-.18Z"/><path d="M76.964 6.362c-1.312.454-2.471 1.284-3.47 2.483-.046.054-.088.108-.133.162-.843.35-1.707.732-2.579 1.149-.867.413-1.21.603-1.832.918.01-.082.024-.163.034-.244.063-.39-.16-.61-.326-.878a9.942 9.942 0 0 1-.538-.945l-.076-.155c-1.045-2.182-1.17-4.472-.34-6.867.11-.318.24-.433.618-.41 1.794.109 3.498.549 5.095 1.362.062.034.121.058.18.078.143.044.268.04.396 0a.915.915 0 0 0 .267-.119c.077-.047.156-.091.233-.135.003 0 .007-.004.007-.004.392-.19.798-.359 1.215-.504l1.25 4.112v-.003ZM92.903 8.777c-.01.024-.025.047-.035.071a10.2 10.2 0 0 1-.58 1.03c-.17.264-.388.488-.33.877.014.081.028.163.039.244-.625-.315-.965-.505-1.833-.918-.874-.417-1.735-.8-2.582-1.148-.042-.054-.083-.109-.129-.163-1-1.2-2.159-2.029-3.47-2.486l1.239-4.082c.472.159.926.349 1.374.562.007.007.017.01.024.014l.066.04c.084.048.16.088.236.112.14.05.271.058.427.01a1.62 1.62 0 0 0 .18-.078c1.597-.813 3.302-1.253 5.096-1.361.378-.024.507.088.614.41.833 2.394.708 4.684-.336 6.866ZM80.55 15.988c.617.058 1.246.04 1.843.25.128.045.263.099.374.177.288.203.285.552.004.769-.18.139-.4.21-.611.274-.444.143-.767.397-.962.817-.124.274-.315.47-.652.47-.34 0-.531-.19-.66-.464-.197-.426-.53-.694-.985-.83a2.678 2.678 0 0 1-.5-.21c-.41-.223-.403-.66.01-.89.323-.18.688-.234 1.049-.282.36-.047.725-.057 1.09-.081Z"/><path fill-rule="evenodd" clip-rule="evenodd" d="M128.257 11.71c-1.735-2.049-4.008-3.075-6.813-3.075-2.454 0-4.429.907-5.918 2.72-.111.145-.212.216-.305.216-.191 0-.285-.25-.285-.752 0-.687.031-1.724.09-3.106.063-1.382.094-2.418.094-3.106 0-.464.031-1.159.101-2.087.066-.925.1-1.612.1-2.063 0-.305-.107-.457-.326-.457-.298 0-.691.04-1.177.122-.586.078-.971.125-1.159.139-.965.037-1.69.064-2.176.078-.333.037-.51.206-.528.515.014 0 .08 1.341.202 4.03.215 4.736.326 8.33.326 10.776 0 5.982-.111 10.03-.326 12.148l-.042.359c0 .172.083.257.243.257h4.293c.174 0 .289-.376.334-1.131.048-.756.145-1.152.295-1.193.545.437 1.086.881 1.628 1.332 1.343.874 2.894 1.31 4.658 1.31 2.644 0 4.852-1.033 6.629-3.096 1.67-1.947 2.503-4.227 2.503-6.849 0-2.791-.816-5.152-2.441-7.087Zm-5.741 6.794c-.399-.55-.956-.876-1.926-.883-.31-.007-.801.191-1.168.59a25.556 25.556 0 0 0-1.617 1.922c-.406.547-.444 1.172-.081 1.773.34.565.882.808 1.539.78.302-.014.604-.088.897-.166.445-.116.878-.13 1.327 0 .274.078.561.134.847.166.897.096 1.732-.537 1.825-1.377a1.72 1.72 0 0 0-.483-1.427c-.41-.438-.805-.89-1.16-1.378Zm-1.153-3.16c.008-.806.615-1.484 1.307-1.467.627.018 1.102.59 1.091 1.31-.016.806-.623 1.484-1.315 1.467-.627-.015-1.091-.576-1.083-1.31Zm-1.957 1.281c.542-.106.909-.625.901-1.388-.031-.505-.267-1.01-.878-1.275-.429-.187-.816-.081-1.14.233-.395.382-.484 1.05-.233 1.618.267.604.797.922 1.35.812Zm-3.94 1.01c0-.646.429-1.123 1.021-1.13.719-.007 1.365.703 1.349 1.487-.011.646-.46 1.12-1.048 1.113-.704-.01-1.322-.696-1.322-1.47Zm9.374 1.463c.711.02 1.353-.654 1.361-1.434l-.004-.004c.008-.664-.398-1.14-.998-1.158-.704-.022-1.349.657-1.361 1.437-.008.66.406 1.14 1.002 1.159Z"/></g><defs><clipPath id="a"><path fill="currentColor" d="M0 0h148v29H0z"/></clipPath></defs></svg>